# xmcd CD database file
#
# Track frame offsets:
#	150
#	23183
#	31794
#	47039
#	67529
#	87022
#	107435
#	126856
#	163021
#	186054
#	201299
#
# Disc length: 2942 seconds
#
# Revision: 0
# Processed by: cddbd v1.5.1PL0 Copyright (c) Steve Scherf et al.
# Submitted via: CDex 1.51
#
DISCID=800b7c0b
DTITLE=love solfege - q.q.g. disc2
DYEAR=2004
DGENRE=JPop
TTITLE0=人生はめっさHAPPY DAYS!
TTITLE1=q.q.g.
TTITLE2=ユイつーしん
TTITLE3=Juria
TTITLE4=La Cancion MARCELINO
TTITLE5=Morning Star
TTITLE6=AUTUMN BREATH
TTITLE7=love天
TTITLE8=人生はめっさHAPPY DAYS! (off vocal)
TTITLE9=人生はめっさHAPPY DAYS! (off vocal)
TTITLE10=人生はめっさHAPPY DAYS! (off vocal)
EXTD=YEAR: 2004
EXTT0=
EXTT1=
EXTT2=
EXTT3=
EXTT4=
EXTT5=
EXTT6=
EXTT7=
EXTT8=
EXTT9=
EXTT10=
PLAYORDER=
